<svg xmlns="http://www.w3.org/2000/svg" width="200" height="200" viewBox="0 0 200 200" preserveAspectRatio="xMidYMid meet" style="width: 100%; height: 100%; transform: translate3d(0px, 0px, 0px); transform-origin: 0px 0px 0px;"><defs><clipPath id="animationMask_LpUenXtmWg"><rect width="200" height="200" x="0" y="0"></rect></clipPath><clipPath id="MkPo9NDKrH"><path fill="#ffffff" clip-rule="nonzero" d=" M-29.2,-26.7 C-29.2,-26.7 -29.2,49.5 -29.2,49.5 C-29.2,55.7 -24.7,61.199999999999996 -18.5,61.9 C-11.2,62.699999999999996 -4.9,57 -4.9,49.9 C-4.9,49.9 -4.9,-26.2 -4.9,-26.2 C-4.9,-26.2 -4.9,-26.3 -5,-26.3 C-10,-21.700000000000003 -24.5,-21.7 -29.2,-26.7 C-29.099999999999998,-26.8 -29.2,-26.7 -29.2,-26.7 C-29.2,-26.7 -29.2,-26.7 -29.2,-26.7"></path></clipPath><clipPath id="fnMi9LjTwC"><path fill="#ffffff" clip-rule="nonzero" d=" M-29.2,-26.7 C-29.2,-26.7 -29.2,49.5 -29.2,49.5 C-29.2,55.7 -24.7,61.199999999999996 -18.5,61.9 C-11.2,62.699999999999996 -4.9,57 -4.9,49.9 C-4.9,49.9 -4.9,-26.2 -4.9,-26.2 C-4.9,-26.2 -4.9,-26.3 -5,-26.3 C-10,-21.700000000000003 -24.5,-21.7 -29.2,-26.7 C-29.099999999999998,-26.8 -29.2,-26.7 -29.2,-26.7 C-29.2,-26.7 -29.2,-26.7 -29.2,-26.7"></path></clipPath><clipPath id="8AymCtVoC2"><path fill="#ffffff" clip-rule="nonzero" d=" M6.8,-8.8 C6.8,-8.8 6.8,51.5 6.8,51.5 C6.8,56.4 10.4,60.8 15.3,61.3 C21.1,62 26,57.4 26,51.8 C26,51.8 26,-8.4 26,-8.4 C26,-8.4 26,-8.5 25.9,-8.4 C22,-4.9 10.5,-4.9 6.8,-8.8 C6.8999999999999995,-8.8 6.8,-8.8 6.8,-8.8 C6.8,-8.8 6.8,-8.8 6.8,-8.8"></path></clipPath><clipPath id="DW1HO6HOR9"><path fill="#ffffff" clip-rule="nonzero" d=" M6.8,-8.8 C6.8,-8.8 6.8,51.5 6.8,51.5 C6.8,56.4 10.4,60.8 15.3,61.3 C21.1,62 26,57.4 26,51.8 C26,51.8 26,-8.4 26,-8.4 C26,-8.4 26,-8.5 25.9,-8.4 C22,-4.9 10.5,-4.9 6.8,-8.8 C6.8999999999999995,-8.8 6.8,-8.8 6.8,-8.8 C6.8,-8.8 6.8,-8.8 6.8,-8.8"></path></clipPath></defs><g clip-path="url(#animationMask_LpUenXtmWg)"><g class="bm_icon_hoverable" style="user-select: none;" opacity="1"><g class="bm_shadow_hoverable" style="user-select: none;"><g style="user-select: none;" transform="matrix(1,0,0,1,100,100)"><path fill="rgb(1,1,1)" fill-opacity="0.08" style="display: none;" d=" M16.2,-21.8 C17.249,-21.8 18.1,-20.948999999999998 18.1,-19.9 C18.1,-18.851 17.249,-18 16.2,-18 C15.151,-18 14.3,-18.851 14.3,-19.9 C14.3,-20.948999999999998 15.151,-21.8 16.2,-21.8z M20.7,-27.3 C21.749,-27.3 22.6,-26.448999999999998 22.6,-25.4 C22.6,-24.351 21.749,-23.5 20.7,-23.5 C19.651,-23.5 18.8,-24.351 18.8,-25.4 C18.8,-26.448999999999998 19.651,-27.3 20.7,-27.3z M11.1,-29.7 C12.424999999999999,-29.7 13.5,-28.625 13.5,-27.3 C13.5,-25.975 12.424999999999999,-24.9 11.1,-24.9 C9.775,-24.9 8.7,-25.975 8.7,-27.3 C8.7,-28.625 9.775,-29.7 11.1,-29.7z M17.5,-40.5 C19.267,-40.5 20.7,-39.067 20.7,-37.3 C20.7,-35.532999999999994 19.267,-34.1 17.5,-34.1 C15.733,-34.1 14.3,-35.532999999999994 14.3,-37.3 C14.3,-39.067 15.733,-40.5 17.5,-40.5z M-17.2,-40.5 C-15.875,-40.5 -14.8,-39.425000000000004 -14.8,-38.1 C-14.8,-36.775 -15.875,-35.7 -17.2,-35.7 C-18.525,-35.7 -19.6,-36.775 -19.6,-38.1 C-19.6,-39.425000000000004 -18.525,-40.5 -17.2,-40.5z M-23.7,-50.4 C-22.043,-50.4 -20.7,-49.057 -20.7,-47.4 C-20.7,-45.742999999999995 -22.043,-44.4 -23.7,-44.4 C-25.357,-44.4 -26.7,-45.742999999999995 -26.7,-47.4 C-26.7,-49.057 -25.357,-50.4 -23.7,-50.4z M-11.5,-47.4 C-10.175,-47.4 -9.1,-46.325 -9.1,-45 C-9.1,-43.675 -10.175,-42.6 -11.5,-42.6 C-12.825,-42.6 -13.9,-43.675 -13.9,-45 C-13.9,-46.325 -12.825,-47.4 -11.5,-47.4z M-23.7,-25.2 C-23.7,-25.2 -23.7,51 -23.7,51 C-23.7,57.2 -19.2,62.699999999999996 -13,63.4 C-5.7,64.2 0.6,58.5 0.6,51.4 C0.6,51.4 0.6,-24.7 0.6,-24.7 C0.6,-24.7 0.6,-24.8 0.5,-24.8 C-4.5,-20.200000000000003 -19,-20.2 -23.7,-25.2 C-23.599999999999998,-25.3 -23.7,-25.2 -23.7,-25.2 C-23.7,-25.2 -23.7,-25.2 -23.7,-25.2z M-23.7,-25 C-23.7,-25 -21.1,-27.8 -11.8,-27.8 C-4.1000000000000005,-27.8 0.5,-25 0.5,-25 C0.5,-25 -1.0999999999999996,-21.599999999999998 -10.4,-21.2 C-19.6,-20.9 -23.7,-25 -23.7,-25 C-23.7,-25 -23.7,-25 -23.7,-25z M-15.5,-64.1 C-13.291,-64.1 -11.5,-62.309000000000005 -11.5,-60.1 C-11.5,-57.891 -13.291,-56.1 -15.5,-56.1 C-17.709,-56.1 -19.5,-57.891 -19.5,-60.1 C-19.5,-62.309000000000005 -17.709,-64.1 -15.5,-64.1z M11.1,-7.7 C11.1,-7.7 11.1,52.6 11.1,52.6 C11.1,57.5 14.700000000000001,61.9 19.6,62.4 C25.400000000000002,63.1 30.3,58.5 30.3,52.9 C30.3,52.9 30.3,-7.3 30.3,-7.3 C30.3,-7.3 30.3,-7.3999999999999995 30.2,-7.3 C26.3,-3.8 14.8,-3.8000000000000003 11.1,-7.7 C11.1,-7.8 11.1,-7.7 11.1,-7.7 C11.1,-7.7 11.1,-7.7 11.1,-7.7z M11.1,-7.5 C11.1,-7.5 13.2,-9.7 20.5,-9.7 C26.6,-9.7 30.3,-7.5 30.3,-7.5 C30.3,-7.5 29,-4.8 21.7,-4.5 C14.299999999999999,-4.3 11.1,-7.5 11.1,-7.5 C11.1,-7.5 11.1,-7.5 11.1,-7.5z"></path></g></g><g style="user-select: none;" transform="matrix(1,0,0,1,100,100)"><path fill="rgb(249,246,235)" fill-opacity="1" style="display: block;" d=" M-29.7,-27.2 C-29.7,-27.2 -29.7,49 -29.7,49 C-29.7,55.2 -25.2,60.699999999999996 -19,61.4 C-11.7,62.199999999999996 -5.4,56.5 -5.4,49.4 C-5.4,49.4 -5.4,-26.7 -5.4,-26.7 C-5.4,-26.7 -5.4,-26.7 -5.5,-26.8 C-16.9,-32.2 -22.799999999999997,-30.4 -29.7,-27.2 C-29.599999999999998,-27.2 -29.7,-27.2 -29.7,-27.2 C-29.7,-27.2 -29.7,-27.2 -29.7,-27.2z"></path></g><g clip-path="url(#MkPo9NDKrH)" style="user-select: none;" transform="matrix(1,0,0,1,100,100)" opacity="1"><g style="user-select: none;"><path fill="rgb(91,194,168)" fill-opacity="1" class="bm_fill bm_color_3" style="display: block;" d=" M-5.4,5.6 C-5.4,5.6 -5.4,-4.3 -5.4,-4.3 C-11.5,-7.699999999999999 -23.6,-7.8 -29.6,-4.8 C-29.6,-4.8 -29.6,5.6 -29.6,5.6 C-25.900000000000002,8.2 -14.1,8.7 -5.4,5.6 C-5.4,5.6 -5.4,5.6 -5.4,5.6z"></path><path fill="rgb(1,1,1)" fill-opacity="0.1" style="display: block;" d=" M-5.4,5.6 C-5.4,5.6 -5.4,-4.3 -5.4,-4.3 C-11.5,-7.699999999999999 -23.6,-7.8 -29.6,-4.8 C-29.6,-4.8 -29.6,5.6 -29.6,5.6 C-25.900000000000002,8.2 -14.1,8.7 -5.4,5.6 C-5.4,5.6 -5.4,5.6 -5.4,5.6z"></path></g></g><g clip-path="url(#fnMi9LjTwC)" style="user-select: none;" transform="matrix(1,0,0,1,100,100)" opacity="1"><g style="user-select: none;"><path fill="rgb(91,194,168)" fill-opacity="1" class="bm_fill bm_color_3" style="display: block;" d=" M-29.7,-4.5 C-29.7,-4.5 -29.7,46.4 -29.7,46.4 C-29.7,53.9 -27.7,60.3 -19,61.4 C-9.1,62.699999999999996 -5.4,55.5 -5.4,46.8 C-5.4,46.8 -5.4,-4 -5.4,-4 C-10.3,-1.2999999999999998 -24.2,-0.7000000000000002 -29.7,-4.5 C-29.7,-4.5 -29.7,-4.5 -29.7,-4.5z"></path></g></g><g style="user-select: none;" transform="matrix(1,0,0,1,100,100)"><g stroke-linecap="butt" stroke-linejoin="miter" fill-opacity="0" stroke-miterlimit="4" stroke="rgb(96,50,86)" stroke-opacity="1" stroke-width="2" class="bm_stroke bm_color_4" style="display: block;"><path d=" M-29.7,-27 C-29.7,-27 -27.1,-29.8 -17.8,-29.8 C-10.100000000000001,-29.8 -5.5,-27 -5.5,-27"></path></g></g><g style="user-select: none;" transform="matrix(1,0,0,1,96.79128259888265,105.00162948277901)"><path fill="rgb(91,194,168)" fill-opacity="1" class="bm_fill bm_color_3" style="display: block;" d=" M-17.2,-40.5 C-15.875,-40.5 -14.8,-39.425000000000004 -14.8,-38.1 C-14.8,-36.775 -15.875,-35.7 -17.2,-35.7 C-18.525,-35.7 -19.6,-36.775 -19.6,-38.1 C-19.6,-39.425000000000004 -18.525,-40.5 -17.2,-40.5z"></path></g><g style="user-select: none;" transform="matrix(1,0,0,1,99.20525598939346,105.61360934411911)"><path fill="rgb(91,194,168)" fill-opacity="1" class="bm_fill bm_color_3" style="display: block;" d=" M-23.7,-50.4 C-22.043,-50.4 -20.7,-49.057 -20.7,-47.4 C-20.7,-45.742999999999995 -22.043,-44.4 -23.7,-44.4 C-25.357,-44.4 -26.7,-45.742999999999995 -26.7,-47.4 C-26.7,-49.057 -25.357,-50.4 -23.7,-50.4z"></path></g><g style="user-select: none;" transform="matrix(1,0,0,1,100.2352227789219,105.41327062176872)"><path fill="rgb(91,194,168)" fill-opacity="1" class="bm_fill bm_color_3" style="display: block;" d=" M-11.5,-47.4 C-10.175,-47.4 -9.1,-46.325 -9.1,-45 C-9.1,-43.675 -10.175,-42.6 -11.5,-42.6 C-12.825,-42.6 -13.9,-43.675 -13.9,-45 C-13.9,-46.325 -12.825,-47.4 -11.5,-47.4z"></path></g><g style="user-select: none;" transform="matrix(1,0,0,1,102.92333510368304,105.55120046696616)"><path fill="rgb(91,194,168)" fill-opacity="1" class="bm_fill bm_color_3" style="display: block;" d=" M-15.5,-64.1 C-13.291,-64.1 -11.5,-62.309000000000005 -11.5,-60.1 C-11.5,-57.891 -13.291,-56.1 -15.5,-56.1 C-17.709,-56.1 -19.5,-57.891 -19.5,-60.1 C-19.5,-62.309000000000005 -17.709,-64.1 -15.5,-64.1z"></path></g><g style="user-select: none;" transform="matrix(1,0,0,1,100,100)"><g stroke-linecap="butt" stroke-linejoin="miter" fill-opacity="0" stroke-miterlimit="4" stroke="rgb(96,50,86)" stroke-opacity="1" stroke-width="2" class="bm_stroke bm_color_4" style="display: block;"><path d=" M-29.7,-27.2 C-29.7,-27.2 -29.7,49 -29.7,49 C-29.7,55.2 -25.2,60.699999999999996 -19,61.4 C-11.7,62.199999999999996 -5.4,56.5 -5.4,49.4 C-5.4,49.4 -5.4,-26.7 -5.4,-26.7 C-5.4,-26.7 -5.4,-26.8 -5.5,-26.8 C-10.5,-22.200000000000003 -25,-22.2 -29.7,-27.2 C-29.599999999999998,-27.3 -29.7,-27.2 -29.7,-27.2 C-29.7,-27.2 -29.7,-27.2 -29.7,-27.2z"></path></g></g><g style="user-select: none;" opacity="1"><g style="user-select: none;" transform="matrix(1,0,0,1,95,148)"><path fill="rgb(96,50,86)" fill-opacity="1" class="bm_fill bm_color_4" style="display: block;" d=" M-0.828,-0.816 C-2.328,-0.816 -3.7279999999999998,-0.816 -5.228,-0.816 C-6.327999999999999,-0.816 -6.327999999999999,0.884 -5.228,0.884 C-3.7279999999999998,0.884 -2.328,0.884 -0.828,0.884 C0.27200000000000013,0.784 0.27200000000000013,-0.816 -0.828,-0.816 C-0.828,-0.816 -0.828,-0.816 -0.828,-0.816 C-0.828,-0.816 -0.828,-0.816 -0.828,-0.816z"></path></g></g><g style="user-select: none;" opacity="1"><g style="user-select: none;" transform="matrix(1,0,0,1,95,141)"><path fill="rgb(96,50,86)" fill-opacity="1" class="bm_fill bm_color_4" style="display: block;" d=" M-0.828,-0.816 C-2.328,-0.816 -3.7279999999999998,-0.816 -5.228,-0.816 C-6.327999999999999,-0.816 -6.327999999999999,0.884 -5.228,0.884 C-3.7279999999999998,0.884 -2.328,0.884 -0.828,0.884 C0.27200000000000013,0.784 0.27200000000000013,-0.816 -0.828,-0.816 C-0.828,-0.816 -0.828,-0.816 -0.828,-0.816 C-0.828,-0.816 -0.828,-0.816 -0.828,-0.816z"></path></g></g><g style="user-select: none;" opacity="1"><g style="user-select: none;" transform="matrix(1,0,0,1,95,134)"><path fill="rgb(96,50,86)" fill-opacity="1" class="bm_fill bm_color_4" style="display: block;" d=" M-0.828,-0.816 C-2.328,-0.816 -3.7279999999999998,-0.816 -5.228,-0.816 C-6.327999999999999,-0.816 -6.327999999999999,0.884 -5.228,0.884 C-3.7279999999999998,0.884 -2.328,0.884 -0.828,0.884 C0.27200000000000013,0.784 0.27200000000000013,-0.816 -0.828,-0.816 C-0.828,-0.816 -0.828,-0.816 -0.828,-0.816 C-0.828,-0.816 -0.828,-0.816 -0.828,-0.816z"></path></g></g><g style="user-select: none;" opacity="1"><g style="user-select: none;" transform="matrix(1,0,0,1,95,127)"><path fill="rgb(96,50,86)" fill-opacity="1" class="bm_fill bm_color_4" style="display: block;" d=" M-0.828,-0.816 C-2.328,-0.816 -3.7279999999999998,-0.816 -5.228,-0.816 C-6.327999999999999,-0.816 -6.327999999999999,0.884 -5.228,0.884 C-3.7279999999999998,0.884 -2.328,0.884 -0.828,0.884 C0.27200000000000013,0.784 0.27200000000000013,-0.816 -0.828,-0.816 C-0.828,-0.816 -0.828,-0.816 -0.828,-0.816 C-0.828,-0.816 -0.828,-0.816 -0.828,-0.816z"></path></g></g><g style="user-select: none;" opacity="1"><g style="user-select: none;" transform="matrix(1,0,0,1,95,120)"><path fill="rgb(96,50,86)" fill-opacity="1" class="bm_fill bm_color_4" style="display: block;" d=" M-0.828,-0.816 C-2.328,-0.816 -3.7279999999999998,-0.816 -5.228,-0.816 C-6.327999999999999,-0.816 -6.327999999999999,0.884 -5.228,0.884 C-3.7279999999999998,0.884 -2.328,0.884 -0.828,0.884 C0.27200000000000013,0.784 0.27200000000000013,-0.816 -0.828,-0.816 C-0.828,-0.816 -0.828,-0.816 -0.828,-0.816 C-0.828,-0.816 -0.828,-0.816 -0.828,-0.816z"></path></g></g><g style="user-select: none;" opacity="1"><g style="user-select: none;" transform="matrix(1,0,0,1,95,114)"><path fill="rgb(96,50,86)" fill-opacity="1" class="bm_fill bm_color_4" style="display: block;" d=" M-0.828,-0.816 C-2.328,-0.816 -3.7279999999999998,-0.816 -5.228,-0.816 C-6.327999999999999,-0.816 -6.327999999999999,0.884 -5.228,0.884 C-3.7279999999999998,0.884 -2.328,0.884 -0.828,0.884 C0.27200000000000013,0.784 0.27200000000000013,-0.816 -0.828,-0.816 C-0.828,-0.816 -0.828,-0.816 -0.828,-0.816 C-0.828,-0.816 -0.828,-0.816 -0.828,-0.816z"></path></g></g><g style="user-select: none;" opacity="1"><g style="user-select: none;" transform="matrix(1,0,0,1,95,107)"><path fill="rgb(96,50,86)" fill-opacity="1" class="bm_fill bm_color_4" style="display: block;" d=" M-0.828,-0.816 C-2.328,-0.816 -3.7279999999999998,-0.816 -5.228,-0.816 C-6.327999999999999,-0.816 -6.327999999999999,0.884 -5.228,0.884 C-3.7279999999999998,0.884 -2.328,0.884 -0.828,0.884 C0.27200000000000013,0.784 0.27200000000000013,-0.816 -0.828,-0.816 C-0.828,-0.816 -0.828,-0.816 -0.828,-0.816 C-0.828,-0.816 -0.828,-0.816 -0.828,-0.816z"></path></g></g><g style="user-select: none;" opacity="1"><g style="user-select: none;" transform="matrix(1,0,0,1,95,100)"><path fill="rgb(96,50,86)" fill-opacity="1" class="bm_fill bm_color_4" style="display: block;" d=" M-0.828,-0.816 C-2.328,-0.816 -3.7279999999999998,-0.816 -5.228,-0.816 C-6.327999999999999,-0.816 -6.327999999999999,0.884 -5.228,0.884 C-3.7279999999999998,0.884 -2.328,0.884 -0.828,0.884 C0.27200000000000013,0.784 0.27200000000000013,-0.816 -0.828,-0.816 C-0.828,-0.816 -0.828,-0.816 -0.828,-0.816 C-0.828,-0.816 -0.828,-0.816 -0.828,-0.816z"></path></g></g><g style="user-select: none;" opacity="1"><g style="user-select: none;" transform="matrix(1,0,0,1,95,93)"><path fill="rgb(96,50,86)" fill-opacity="1" class="bm_fill bm_color_4" style="display: block;" d=" M-0.828,-0.816 C-2.328,-0.816 -3.7279999999999998,-0.816 -5.228,-0.816 C-6.327999999999999,-0.816 -6.327999999999999,0.884 -5.228,0.884 C-3.7279999999999998,0.884 -2.328,0.884 -0.828,0.884 C0.27200000000000013,0.784 0.27200000000000013,-0.816 -0.828,-0.816 C-0.828,-0.816 -0.828,-0.816 -0.828,-0.816 C-0.828,-0.816 -0.828,-0.816 -0.828,-0.816z"></path></g></g><g style="user-select: none;" opacity="1"><g style="user-select: none;" transform="matrix(1,0,0,1,95,86)"><path fill="rgb(96,50,86)" fill-opacity="1" class="bm_fill bm_color_4" style="display: block;" d=" M-0.828,-0.816 C-2.328,-0.816 -3.7279999999999998,-0.816 -5.228,-0.816 C-6.327999999999999,-0.816 -6.327999999999999,0.884 -5.228,0.884 C-3.7279999999999998,0.884 -2.328,0.884 -0.828,0.884 C0.27200000000000013,0.784 0.27200000000000013,-0.816 -0.828,-0.816 C-0.828,-0.816 -0.828,-0.816 -0.828,-0.816 C-0.828,-0.816 -0.828,-0.816 -0.828,-0.816z"></path></g></g><g style="user-select: none;" transform="matrix(1,0,0,1,100,100)"><path fill="rgb(249,246,235)" fill-opacity="1" style="display: block;" d=" M-26.2,2 C-26.2,15.5 -26.2,29.1 -26.2,42.6 C-26.2,43.6 -24.7,43.6 -24.7,42.6 C-24.7,29.1 -24.7,15.5 -24.7,2 C-24.7,1 -26.2,1 -26.2,2 C-26.2,2 -26.2,2 -26.2,2 C-26.2,2 -26.2,2 -26.2,2z M-24.7,45.9 C-24.7,45.9 -24.7,45.8 -24.7,45.9 C-24.7,44.9 -26.2,44.9 -26.2,45.9 C-26.2,45.9 -26.2,45.9 -26.2,45.9 C-26.2,46.8 -24.7,46.8 -24.7,45.9 C-24.7,45.9 -24.7,45.9 -24.7,45.9 C-24.7,45.9 -24.7,45.9 -24.7,45.9z"></path></g><g style="user-select: none;" transform="matrix(1,0,0,1,100,100)"><path fill="rgb(249,246,235)" fill-opacity="1" style="display: block;" d=" M6.3,-9.3 C6.3,-9.3 6.3,51 6.3,51 C6.3,55.9 9.9,60.3 14.8,60.8 C20.6,61.5 25.5,56.9 25.5,51.3 C25.5,51.3 25.5,-8.9 25.5,-8.9 C25.5,-8.9 25.5,-8.9 25.4,-8.9 C16.5,-13.2 11.8,-11.8 6.3,-9.3 C6.3999999999999995,-9.3 6.3,-9.3 6.3,-9.3 C6.3,-9.3 6.3,-9.3 6.3,-9.3z"></path></g><g clip-path="url(#8AymCtVoC2)" style="user-select: none;" transform="matrix(1,0,0,1,100,100)" opacity="1"><g style="user-select: none;"><path fill="rgb(243,181,115)" fill-opacity="1" class="bm_fill bm_color_2" style="display: block;" d=" M25.5,16.7 C25.5,16.7 25.5,8.9 25.5,8.9 C20.7,6.2 11.1,6.1 6.3,8.5 C6.3,8.5 6.3,16.7 6.3,16.7 C9.3,18.8 18.6,19.2 25.5,16.7 C25.5,16.7 25.5,16.7 25.5,16.7z"></path><path fill="rgb(1,1,1)" fill-opacity="0.1" style="display: block;" d=" M25.5,16.7 C25.5,16.7 25.5,8.9 25.5,8.9 C20.7,6.2 11.1,6.1 6.3,8.5 C6.3,8.5 6.3,16.7 6.3,16.7 C9.3,18.8 18.6,19.2 25.5,16.7 C25.5,16.7 25.5,16.7 25.5,16.7z"></path></g></g><g clip-path="url(#DW1HO6HOR9)" style="user-select: none;" transform="matrix(1,0,0,1,100,100)" opacity="1"><g style="user-select: none;"><path fill="rgb(243,181,115)" fill-opacity="1" class="bm_fill bm_color_2" style="display: block;" d=" M6.3,8.7 C6.3,8.7 6.3,49 6.3,49 C6.3,54.9 7.9,60 14.8,60.9 C22.6,61.9 25.5,56.199999999999996 25.5,49.4 C25.5,49.4 25.5,9.1 25.5,9.1 C21.6,11.2 10.7,11.7 6.3,8.7 C6.3,8.7 6.3,8.7 6.3,8.7z"></path></g></g><g style="user-select: none;" transform="matrix(1,0,0,1,100,100)"><g stroke-linecap="butt" stroke-linejoin="miter" fill-opacity="0" stroke-miterlimit="4" stroke="rgb(96,50,86)" stroke-opacity="1" stroke-width="2" class="bm_stroke bm_color_4" style="display: block;"><path d=" M6.3,-9.1 C6.3,-9.1 8.399999999999999,-11.3 15.7,-11.3 C21.799999999999997,-11.3 25.5,-9.1 25.5,-9.1"></path></g></g><g style="user-select: none;" transform="matrix(1,0,0,1,98.43791141801985,105.2952496873583)"><path fill="rgb(243,181,115)" fill-opacity="1" class="bm_fill bm_color_2" style="display: block;" d=" M16.2,-21.8 C17.249,-21.8 18.1,-20.948999999999998 18.1,-19.9 C18.1,-18.851 17.249,-18 16.2,-18 C15.151,-18 14.3,-18.851 14.3,-19.9 C14.3,-20.948999999999998 15.151,-21.8 16.2,-21.8z"></path></g><g style="user-select: none;" transform="matrix(1,0,0,1,102.05711582040512,105.50558358157119)"><path fill="rgb(243,181,115)" fill-opacity="1" class="bm_fill bm_color_2" style="display: block;" d=" M20.7,-27.3 C21.749,-27.3 22.6,-26.448999999999998 22.6,-25.4 C22.6,-24.351 21.749,-23.5 20.7,-23.5 C19.651,-23.5 18.8,-24.351 18.8,-25.4 C18.8,-26.448999999999998 19.651,-27.3 20.7,-27.3z"></path></g><g style="user-select: none;" transform="matrix(1,0,0,1,99.34556883108148,105.82100358156278)"><path fill="rgb(243,181,115)" fill-opacity="1" class="bm_fill bm_color_2" style="display: block;" d=" M11.1,-29.7 C12.424999999999999,-29.7 13.5,-28.625 13.5,-27.3 C13.5,-25.975 12.424999999999999,-24.9 11.1,-24.9 C9.775,-24.9 8.7,-25.975 8.7,-27.3 C8.7,-28.625 9.775,-29.7 11.1,-29.7z"></path></g><g style="user-select: none;" transform="matrix(1,0,0,1,102.59134748002153,105.04387364359701)"><path fill="rgb(243,181,115)" fill-opacity="1" class="bm_fill bm_color_2" style="display: block;" d=" M17.5,-40.5 C19.267,-40.5 20.7,-39.067 20.7,-37.3 C20.7,-35.532999999999994 19.267,-34.1 17.5,-34.1 C15.733,-34.1 14.3,-35.532999999999994 14.3,-37.3 C14.3,-39.067 15.733,-40.5 17.5,-40.5z"></path></g><g style="user-select: none;" transform="matrix(1,0,0,1,100,100)"><g stroke-linecap="butt" stroke-linejoin="miter" fill-opacity="0" stroke-miterlimit="4" stroke="rgb(96,50,86)" stroke-opacity="1" stroke-width="2" class="bm_stroke bm_color_4" style="display: block;"><path d=" M6.3,-9.3 C6.3,-9.3 6.3,51 6.3,51 C6.3,55.9 9.9,60.3 14.8,60.8 C20.6,61.5 25.5,56.9 25.5,51.3 C25.5,51.3 25.5,-8.9 25.5,-8.9 C25.5,-8.9 25.5,-9 25.4,-8.9 C21.5,-5.4 10,-5.4 6.3,-9.3 C6.3999999999999995,-9.3 6.3,-9.3 6.3,-9.3 C6.3,-9.3 6.3,-9.3 6.3,-9.3z"></path></g></g><g style="user-select: none;" opacity="1"><g style="user-select: none;" transform="matrix(1,0,0,1,126,150)"><path fill="rgb(96,50,86)" fill-opacity="1" class="bm_fill bm_color_4" style="display: block;" d=" M-0.759,-0.834 C-1.959,-0.834 -3.059,-0.834 -4.259,-0.834 C-5.359,-0.834 -5.359,0.866 -4.259,0.866 C-3.059,0.866 -1.959,0.866 -0.759,0.866 C0.241,0.866 0.241,-0.834 -0.759,-0.834 C-0.759,-0.834 -0.759,-0.834 -0.759,-0.834 C-0.759,-0.834 -0.759,-0.834 -0.759,-0.834z"></path></g></g><g style="user-select: none;" opacity="1"><g style="user-select: none;" transform="matrix(1,0,0,1,126,145)"><path fill="rgb(96,50,86)" fill-opacity="1" class="bm_fill bm_color_4" style="display: block;" d=" M-0.759,-0.834 C-1.959,-0.834 -3.059,-0.834 -4.259,-0.834 C-5.359,-0.834 -5.359,0.866 -4.259,0.866 C-3.059,0.866 -1.959,0.866 -0.759,0.866 C0.241,0.866 0.241,-0.834 -0.759,-0.834 C-0.759,-0.834 -0.759,-0.834 -0.759,-0.834 C-0.759,-0.834 -0.759,-0.834 -0.759,-0.834z"></path></g></g><g style="user-select: none;" opacity="1"><g style="user-select: none;" transform="matrix(1,0,0,1,126,139)"><path fill="rgb(96,50,86)" fill-opacity="1" class="bm_fill bm_color_4" style="display: block;" d=" M-0.759,-0.834 C-1.959,-0.834 -3.059,-0.834 -4.259,-0.834 C-5.359,-0.834 -5.359,0.866 -4.259,0.866 C-3.059,0.866 -1.959,0.866 -0.759,0.866 C0.241,0.866 0.241,-0.834 -0.759,-0.834 C-0.759,-0.834 -0.759,-0.834 -0.759,-0.834 C-0.759,-0.834 -0.759,-0.834 -0.759,-0.834z"></path></g></g><g style="user-select: none;" opacity="1"><g style="user-select: none;" transform="matrix(1,0,0,1,126,134)"><path fill="rgb(96,50,86)" fill-opacity="1" class="bm_fill bm_color_4" style="display: block;" d=" M-0.759,-0.834 C-1.959,-0.834 -3.059,-0.834 -4.259,-0.834 C-5.359,-0.834 -5.359,0.866 -4.259,0.866 C-3.059,0.866 -1.959,0.866 -0.759,0.866 C0.241,0.866 0.241,-0.834 -0.759,-0.834 C-0.759,-0.834 -0.759,-0.834 -0.759,-0.834 C-0.759,-0.834 -0.759,-0.834 -0.759,-0.834z"></path></g></g><g style="user-select: none;" opacity="1"><g style="user-select: none;" transform="matrix(1,0,0,1,126,128)"><path fill="rgb(96,50,86)" fill-opacity="1" class="bm_fill bm_color_4" style="display: block;" d=" M-0.759,-0.834 C-1.959,-0.834 -3.059,-0.834 -4.259,-0.834 C-5.359,-0.834 -5.359,0.866 -4.259,0.866 C-3.059,0.866 -1.959,0.866 -0.759,0.866 C0.241,0.866 0.241,-0.834 -0.759,-0.834 C-0.759,-0.834 -0.759,-0.834 -0.759,-0.834 C-0.759,-0.834 -0.759,-0.834 -0.759,-0.834z"></path></g></g><g style="user-select: none;" opacity="1"><g style="user-select: none;" transform="matrix(1,0,0,1,126,123)"><path fill="rgb(96,50,86)" fill-opacity="1" class="bm_fill bm_color_4" style="display: block;" d=" M-0.759,-0.834 C-1.959,-0.834 -3.059,-0.834 -4.259,-0.834 C-5.359,-0.834 -5.359,0.866 -4.259,0.866 C-3.059,0.866 -1.959,0.866 -0.759,0.866 C0.241,0.866 0.241,-0.834 -0.759,-0.834 C-0.759,-0.834 -0.759,-0.834 -0.759,-0.834 C-0.759,-0.834 -0.759,-0.834 -0.759,-0.834z"></path></g></g><g style="user-select: none;" opacity="1"><g style="user-select: none;" transform="matrix(1,0,0,1,126,118)"><path fill="rgb(96,50,86)" fill-opacity="1" class="bm_fill bm_color_4" style="display: block;" d=" M-0.759,-0.834 C-1.959,-0.834 -3.059,-0.834 -4.259,-0.834 C-5.359,-0.834 -5.359,0.866 -4.259,0.866 C-3.059,0.866 -1.959,0.866 -0.759,0.866 C0.241,0.866 0.241,-0.834 -0.759,-0.834 C-0.759,-0.834 -0.759,-0.834 -0.759,-0.834 C-0.759,-0.834 -0.759,-0.834 -0.759,-0.834z"></path></g></g><g style="user-select: none;" opacity="1"><g style="user-select: none;" transform="matrix(1,0,0,1,126,112)"><path fill="rgb(96,50,86)" fill-opacity="1" class="bm_fill bm_color_4" style="display: block;" d=" M-0.759,-0.834 C-1.959,-0.834 -3.059,-0.834 -4.259,-0.834 C-5.359,-0.834 -5.359,0.866 -4.259,0.866 C-3.059,0.866 -1.959,0.866 -0.759,0.866 C0.241,0.866 0.241,-0.834 -0.759,-0.834 C-0.759,-0.834 -0.759,-0.834 -0.759,-0.834 C-0.759,-0.834 -0.759,-0.834 -0.759,-0.834z"></path></g></g><g style="user-select: none;" opacity="1"><g style="user-select: none;" transform="matrix(1,0,0,1,126,107)"><path fill="rgb(96,50,86)" fill-opacity="1" class="bm_fill bm_color_4" style="display: block;" d=" M-0.759,-0.834 C-1.959,-0.834 -3.059,-0.834 -4.259,-0.834 C-5.359,-0.834 -5.359,0.866 -4.259,0.866 C-3.059,0.866 -1.959,0.866 -0.759,0.866 C0.241,0.866 0.241,-0.834 -0.759,-0.834 C-0.759,-0.834 -0.759,-0.834 -0.759,-0.834 C-0.759,-0.834 -0.759,-0.834 -0.759,-0.834z"></path></g></g><g style="user-select: none;" opacity="1"><g style="user-select: none;" transform="matrix(1,0,0,1,126,101)"><path fill="rgb(96,50,86)" fill-opacity="1" class="bm_fill bm_color_4" style="display: block;" d=" M-0.759,-0.834 C-1.959,-0.834 -3.059,-0.834 -4.259,-0.834 C-5.359,-0.834 -5.359,0.866 -4.259,0.866 C-3.059,0.866 -1.959,0.866 -0.759,0.866 C0.241,0.866 0.241,-0.834 -0.759,-0.834 C-0.759,-0.834 -0.759,-0.834 -0.759,-0.834 C-0.759,-0.834 -0.759,-0.834 -0.759,-0.834z"></path></g></g><g style="user-select: none;" transform="matrix(1,0,0,1,100,100)"><path fill="rgb(249,246,235)" fill-opacity="1" style="display: block;" d=" M8.9,13.8 C8.9,24.5 8.9,35.2 8.9,45.9 C8.9,46.9 10.4,46.9 10.4,45.9 C10.4,35.2 10.4,24.5 10.4,13.8 C10.4,12.9 8.9,12.9 8.9,13.8 C8.9,13.8 8.9,13.8 8.9,13.8 C8.9,13.8 8.9,13.8 8.9,13.8z M10.4,48.6 C10.4,48.5 10.4,48.5 10.4,48.6 C10.4,47.6 8.9,47.6 8.9,48.6 C8.9,48.6 8.9,48.6 8.9,48.6 C8.9,49.5 10.4,49.5 10.4,48.6 C10.4,48.6 10.4,48.6 10.4,48.6 C10.4,48.6 10.4,48.6 10.4,48.6z"></path></g><rect width="200" height="200" fill="#ffffff" visibility="visible" transform="matrix(1,0,0,1,0,0)" opacity="0"></rect></g></g></svg>